# ProBuilder 5.0.3
# https://unity3d.com/unity/features/worldbuilding/probuilder
# 26.11.2021 16:44:14

mtllib ./Test.mtl
o Test

g Cube (2)
v 0 0 0.7691932
v 0 0 4.768372E-07
v 0 4.164622 0.7691932
v 0 4.164622 4.768372E-07
v 10.98074 0 4.768372E-07
v 10.98074 0 0.7691932
v 10.98074 4.164622 4.768372E-07
v 10.98074 4.164622 0.7691932
v 0.6301804 0 0.7691927
v 0.6301804 4.164622 0.7691927
v 0.6301808 0 12.27335
v 4.768372E-07 0 12.27335
v 4.768372E-07 4.164622 12.27335
v 0.6301808 4.164622 12.27335
v 0.6301804 4.164622 9.536743E-07
v 0.6301804 0 9.536743E-07
v 0.6301808 0 11.51973
v 4.768372E-07 0 11.51973
v 4.768372E-07 4.164622 11.51973
v 0.6301808 4.164622 11.51973
v 10.86973 4.164622 11.51973
v 10.86973 0 11.51973
v 10.86973 4.164622 12.27335
v 10.86973 0 12.27335
v 10.36973 4.164622 11.51973
v 10.36973 0 11.51973
v 10.36973 4.164622 12.27335
v 10.36973 0 12.27335
v 10.36973 4.164622 3.995549
v 10.36973 0 3.995549
v 10.86973 4.164622 3.995549
v 10.86973 0 3.995549

vt 0.0570417 0
vt 3.539026E-08 0
vt 0.0570417 0.3088393
vt 3.539026E-08 0.3088393
vt -0.0570417 0
vt -0.0570417 0.3088393
vt 0.4032713 0.003378347
vt 0.4032713 0.7709535
vt 0.7121106 0.7709535
vt 0.7121106 0.003378347
vt 0.04673284 0
vt 0.04673284 0.3088393
vt -0.04673281 0.3088393
vt -0.8143079 0
vt -0.8143079 0.3088393
vt -0.04673281 0
vt -0.04673281 0.05704166
vt 0 0.0570417
vt -0.8143079 0.0570417
vt 0.04673281 0.05704166
vt 0.8143079 0.0570417
vt 0.8143079 3.539026E-08
vt 0.04673285 0.854278
vt 3.539026E-08 0.854278
vt 0.854278 0
vt 0.854278 0.3088393
vt 0.7107501 0.00035882
vt 0.4019107 0.00035882
vt 0.7107501 0.7975951
vt 0.4019108 0.7975951
vt -0.04673284 0.854278
vt 0.04673284 0.910165
vt 3.539026E-08 0.910165
vt 0.910165 0
vt 0.910165 0.3088393
vt -0.854278 0.3088393
vt -0.854278 0
vt -0.910165 0.3088393
vt -0.910165 0
vt -0.04673284 0.910165
vt 0.711132 0.0042108
vt 0.4022927 0.0042108
vt 0.7111321 0.7264745
vt 0.4022927 0.7264745
vt -0.7689966 0.910165
vt -0.7689966 0.854278
vt 0.7689966 0.854278
vt 0.7689966 0.910165
vt 0.7689966 0
vt 0.7689966 0.3088393
vt -0.7689965 0.3088393
vt -0.7689965 0
vt -0.8060755 0.3088393
vt -0.8060755 0
vt -0.8060755 0.910165
vt -0.8060755 0.854278
vt 0.8060755 0.854278
vt 0.8060755 0.910165
vt 0.8060755 0
vt 0.8060755 0.3088393
vt 0.7081143 0.005001545
vt 0.399275 0.005001545
vt 0.7081143 0.5629783
vt 0.399275 0.5629783
vt -0.8060755 0.2963012
vt -0.7689965 0.2963012
vt 0.7689965 0.2963012
vt 0.8060755 0.2963012
vt -0.2963012 0
vt -0.2963012 0.3088393

vn -1 0 0
vn 1 0 0
vn -4.606873E-08 0 1
vn -4.606873E-08 0 -1
vn 0 1 0
vn 0 -1 0

usemtl Pipes_set_v1
f 3/3/1 2/2/1 1/1/1
f 3/3/1 4/4/1 2/2/1
f 7/4/2 6/5/2 5/2/2
f 7/4/2 8/6/2 6/5/2
f 10/9/3 9/8/3 6/7/3
f 10/9/3 6/7/3 8/10/3
f 13/4/3 12/2/3 11/11/3
f 13/4/3 11/11/3 14/12/3
f 7/15/4 5/14/4 15/13/4
f 5/14/4 16/16/4 15/13/4
f 15/13/4 16/16/4 4/4/4
f 16/16/4 2/2/4 4/4/4
f 10/17/5 15/16/5 4/2/5
f 10/17/5 4/2/5 3/18/5
f 8/19/5 7/14/5 15/16/5
f 8/19/5 15/16/5 10/17/5
f 1/18/6 2/2/6 9/20/6
f 2/2/6 16/11/6 9/20/6
f 9/20/6 16/11/6 6/21/6
f 16/11/6 5/22/6 6/21/6
f 17/23/6 1/18/6 9/20/6
f 17/23/6 18/24/6 1/18/6
f 18/25/1 3/3/1 1/1/1
f 18/25/1 19/26/1 3/3/1
f 20/29/2 9/28/2 10/27/2
f 20/29/2 17/30/2 9/28/2
f 19/24/5 10/17/5 3/18/5
f 19/24/5 20/31/5 10/17/5
f 11/32/6 18/24/6 17/23/6
f 11/32/6 12/33/6 18/24/6
f 12/34/1 19/26/1 18/25/1
f 12/34/1 13/35/1 19/26/1
f 23/38/2 22/37/2 21/36/2
f 23/38/2 24/39/2 22/37/2
f 13/33/5 20/31/5 19/24/5
f 13/33/5 14/40/5 20/31/5
f 25/43/4 17/42/4 20/41/4
f 25/43/4 26/44/4 17/42/4
f 27/45/5 20/31/5 14/40/5
f 27/45/5 25/46/5 20/31/5
f 26/47/6 11/32/6 17/23/6
f 26/47/6 28/48/6 11/32/6
f 28/49/3 14/12/3 11/11/3
f 28/49/3 27/50/3 14/12/3
f 31/53/4 30/52/4 29/51/4
f 31/53/4 32/54/4 30/52/4
f 23/55/5 25/46/5 27/45/5
f 23/55/5 21/56/5 25/46/5
f 22/57/6 28/48/6 26/47/6
f 22/57/6 24/58/6 28/48/6
f 24/59/3 27/50/3 28/49/3
f 24/59/3 23/60/3 27/50/3
f 29/63/1 26/62/1 25/61/1
f 29/63/1 30/64/1 26/62/1
f 31/65/5 25/46/5 21/56/5
f 31/65/5 29/66/5 25/46/5
f 30/67/6 22/57/6 26/47/6
f 30/67/6 32/68/6 22/57/6
f 32/69/2 21/36/2 22/37/2
f 32/69/2 31/70/2 21/36/2

